<svg xmlns="http://www.w3.org/2000/svg" xmlns:xlink="http://www.w3.org/1999/xlink" width="2000" zoomAndPan="magnify" viewBox="0 0 1500 1499.999933" height="2000" preserveAspectRatio="xMidYMid meet" version="1.0"><defs><clipPath id="94be41bb1a"><path d="M 0.234375 0.234375 L 1431.917969 0.234375 L 1431.917969 1431.917969 L 0.234375 1431.917969 Z M 0.234375 0.234375 " clip-rule="nonzero"/></clipPath><clipPath id="85b2a1d99b"><path d="M 117.644531 117.644531 L 1314.222656 117.644531 L 1314.222656 1314.222656 L 117.644531 1314.222656 Z M 117.644531 117.644531 " clip-rule="nonzero"/></clipPath><clipPath id="0ad44a4966"><path d="M 716.535156 249.960938 L 1187 249.960938 L 1187 1174.183594 L 716.535156 1174.183594 Z M 716.535156 249.960938 " clip-rule="nonzero"/></clipPath><clipPath id="b7d3a3d5e2"><rect x="0" width="1432" y="0" height="1432"/></clipPath></defs><g transform="matrix(1, 0, 0, 1, 34, 34)"><g clip-path="url(#b7d3a3d5e2)"><g clip-path="url(#94be41bb1a)"><path fill="#ebebe7" d="M 1431.753906 715.996094 C 1431.753906 727.707031 1431.464844 739.414062 1430.890625 751.113281 C 1430.316406 762.816406 1429.457031 774.492188 1428.308594 786.152344 C 1427.160156 797.808594 1425.726562 809.429688 1424.007812 821.019531 C 1422.289062 832.605469 1420.285156 844.144531 1418 855.632812 C 1415.714844 867.121094 1413.148438 878.546875 1410.304688 889.910156 C 1407.457031 901.273438 1404.332031 912.558594 1400.933594 923.769531 C 1397.53125 934.976562 1393.859375 946.097656 1389.914062 957.125 C 1385.96875 968.15625 1381.753906 979.082031 1377.269531 989.902344 C 1372.785156 1000.726562 1368.042969 1011.433594 1363.03125 1022.019531 C 1358.023438 1032.609375 1352.757812 1043.070312 1347.238281 1053.402344 C 1341.714844 1063.730469 1335.945312 1073.921875 1329.921875 1083.96875 C 1323.898438 1094.015625 1317.632812 1103.910156 1311.125 1113.648438 C 1304.617188 1123.390625 1297.875 1132.964844 1290.898438 1142.371094 C 1283.917969 1151.78125 1276.714844 1161.011719 1269.285156 1170.066406 C 1261.851562 1179.121094 1254.203125 1187.988281 1246.335938 1196.667969 C 1238.46875 1205.347656 1230.394531 1213.828125 1222.113281 1222.113281 C 1213.828125 1230.394531 1205.347656 1238.46875 1196.667969 1246.335938 C 1187.988281 1254.203125 1179.121094 1261.851562 1170.066406 1269.285156 C 1161.011719 1276.714844 1151.78125 1283.917969 1142.371094 1290.898438 C 1132.964844 1297.875 1123.390625 1304.617188 1113.648438 1311.125 C 1103.910156 1317.632812 1094.015625 1323.898438 1083.96875 1329.921875 C 1073.921875 1335.945312 1063.730469 1341.714844 1053.402344 1347.238281 C 1043.070312 1352.757812 1032.609375 1358.023438 1022.019531 1363.03125 C 1011.433594 1368.042969 1000.726562 1372.785156 989.902344 1377.269531 C 979.082031 1381.753906 968.15625 1385.96875 957.125 1389.914062 C 946.097656 1393.859375 934.976562 1397.53125 923.769531 1400.933594 C 912.558594 1404.332031 901.273438 1407.457031 889.910156 1410.304688 C 878.546875 1413.148438 867.121094 1415.714844 855.632812 1418 C 844.144531 1420.285156 832.605469 1422.289062 821.019531 1424.007812 C 809.429688 1425.726562 797.808594 1427.160156 786.152344 1428.308594 C 774.492188 1429.457031 762.816406 1430.316406 751.113281 1430.890625 C 739.414062 1431.464844 727.707031 1431.753906 715.996094 1431.753906 C 704.28125 1431.753906 692.574219 1431.464844 680.875 1430.890625 C 669.175781 1430.316406 657.496094 1429.457031 645.839844 1428.308594 C 634.179688 1427.160156 622.558594 1425.726562 610.972656 1424.007812 C 599.382812 1422.289062 587.84375 1420.285156 576.355469 1418 C 564.867188 1415.714844 553.441406 1413.148438 542.078125 1410.304688 C 530.714844 1407.457031 519.429688 1404.332031 508.21875 1400.933594 C 497.011719 1397.53125 485.890625 1393.859375 474.863281 1389.914062 C 463.832031 1385.96875 452.90625 1381.753906 442.085938 1377.269531 C 431.261719 1372.785156 420.558594 1368.042969 409.96875 1363.03125 C 399.378906 1358.023438 388.917969 1352.757812 378.589844 1347.238281 C 368.257812 1341.714844 358.066406 1335.945312 348.019531 1329.921875 C 337.972656 1323.898438 328.078125 1317.632812 318.339844 1311.125 C 308.601562 1304.617188 299.027344 1297.875 289.617188 1290.898438 C 280.207031 1283.917969 270.976562 1276.714844 261.921875 1269.285156 C 252.867188 1261.851562 244 1254.203125 235.320312 1246.335938 C 226.640625 1238.46875 218.160156 1230.394531 209.875 1222.113281 C 201.59375 1213.828125 193.519531 1205.347656 185.652344 1196.667969 C 177.785156 1187.988281 170.136719 1179.121094 162.707031 1170.066406 C 155.273438 1161.011719 148.070312 1151.78125 141.089844 1142.371094 C 134.113281 1132.964844 127.371094 1123.390625 120.863281 1113.648438 C 114.355469 1103.910156 108.089844 1094.015625 102.066406 1083.96875 C 96.046875 1073.921875 90.273438 1063.730469 84.75 1053.402344 C 79.230469 1043.070312 73.964844 1032.609375 68.957031 1022.019531 C 63.949219 1011.433594 59.203125 1000.726562 54.71875 989.902344 C 50.238281 979.082031 46.023438 968.15625 42.074219 957.125 C 38.128906 946.097656 34.457031 934.976562 31.054688 923.769531 C 27.65625 912.558594 24.53125 901.273438 21.6875 889.910156 C 18.839844 878.546875 16.273438 867.121094 13.988281 855.632812 C 11.703125 844.144531 9.699219 832.605469 7.980469 821.019531 C 6.261719 809.429688 4.832031 797.808594 3.683594 786.152344 C 2.535156 774.492188 1.671875 762.816406 1.097656 751.113281 C 0.523438 739.414062 0.234375 727.707031 0.234375 715.996094 C 0.234375 704.28125 0.523438 692.574219 1.097656 680.875 C 1.671875 669.175781 2.535156 657.496094 3.683594 645.835938 C 4.832031 634.179688 6.261719 622.558594 7.980469 610.972656 C 9.699219 599.382812 11.703125 587.84375 13.988281 576.355469 C 16.273438 564.867188 18.839844 553.441406 21.6875 542.078125 C 24.53125 530.714844 27.65625 519.429688 31.054688 508.21875 C 34.457031 497.011719 38.128906 485.890625 42.074219 474.863281 C 46.023438 463.832031 50.238281 452.90625 54.71875 442.085938 C 59.203125 431.261719 63.949219 420.558594 68.957031 409.96875 C 73.964844 399.378906 79.230469 388.917969 84.75 378.585938 C 90.273438 368.257812 96.046875 358.066406 102.066406 348.019531 C 108.089844 337.972656 114.355469 328.078125 120.863281 318.339844 C 127.371094 308.601562 134.113281 299.027344 141.089844 289.617188 C 148.070312 280.207031 155.273438 270.976562 162.707031 261.921875 C 170.136719 252.867188 177.785156 244 185.652344 235.320312 C 193.519531 226.640625 201.59375 218.160156 209.875 209.875 C 218.160156 201.59375 226.640625 193.519531 235.320312 185.652344 C 244 177.785156 252.867188 170.136719 261.921875 162.707031 C 270.976562 155.273438 280.207031 148.070312 289.617188 141.089844 C 299.027344 134.113281 308.601562 127.371094 318.339844 120.863281 C 328.078125 114.355469 337.972656 108.089844 348.019531 102.066406 C 358.066406 96.046875 368.257812 90.273438 378.589844 84.75 C 388.917969 79.230469 399.378906 73.964844 409.96875 68.957031 C 420.558594 63.949219 431.261719 59.203125 442.085938 54.71875 C 452.90625 50.238281 463.832031 46.023438 474.863281 42.074219 C 485.890625 38.128906 497.011719 34.457031 508.21875 31.054688 C 519.429688 27.65625 530.714844 24.53125 542.078125 21.6875 C 553.441406 18.839844 564.867188 16.273438 576.355469 13.988281 C 587.84375 11.703125 599.382812 9.699219 610.972656 7.980469 C 622.558594 6.261719 634.179688 4.828125 645.839844 3.683594 C 657.496094 2.535156 669.175781 1.671875 680.875 1.097656 C 692.574219 0.523438 704.28125 0.234375 715.996094 0.234375 C 727.707031 0.234375 739.414062 0.523438 751.113281 1.097656 C 762.816406 1.671875 774.492188 2.535156 786.152344 3.683594 C 797.808594 4.828125 809.429688 6.261719 821.019531 7.980469 C 832.605469 9.699219 844.144531 11.703125 855.632812 13.988281 C 867.121094 16.273438 878.546875 18.839844 889.910156 21.6875 C 901.273438 24.53125 912.558594 27.65625 923.769531 31.054688 C 934.976562 34.457031 946.097656 38.128906 957.125 42.074219 C 968.15625 46.023438 979.082031 50.238281 989.902344 54.71875 C 1000.726562 59.203125 1011.433594 63.949219 1022.019531 68.957031 C 1032.609375 73.964844 1043.070312 79.230469 1053.402344 84.75 C 1063.730469 90.273438 1073.921875 96.046875 1083.96875 102.066406 C 1094.015625 108.089844 1103.910156 114.355469 1113.648438 120.863281 C 1123.390625 127.371094 1132.964844 134.113281 1142.371094 141.089844 C 1151.78125 148.070312 1161.011719 155.273438 1170.066406 162.707031 C 1179.121094 170.136719 1187.988281 177.785156 1196.667969 185.652344 C 1205.347656 193.519531 1213.828125 201.59375 1222.113281 209.875 C 1230.394531 218.160156 1238.46875 226.640625 1246.335938 235.320312 C 1254.203125 244 1261.851562 252.867188 1269.285156 261.921875 C 1276.714844 270.976562 1283.917969 280.207031 1290.898438 289.617188 C 1297.875 299.027344 1304.617188 308.601562 1311.125 318.339844 C 1317.632812 328.078125 1323.898438 337.972656 1329.921875 348.019531 C 1335.945312 358.066406 1341.714844 368.257812 1347.238281 378.589844 C 1352.757812 388.917969 1358.023438 399.378906 1363.035156 409.96875 C 1368.042969 420.558594 1372.785156 431.261719 1377.269531 442.085938 C 1381.753906 452.90625 1385.96875 463.832031 1389.914062 474.863281 C 1393.859375 485.890625 1397.53125 497.011719 1400.933594 508.21875 C 1404.332031 519.429688 1407.457031 530.714844 1410.304688 542.078125 C 1413.148438 553.441406 1415.714844 564.867188 1418 576.355469 C 1420.285156 587.84375 1422.289062 599.382812 1424.007812 610.972656 C 1425.726562 622.558594 1427.160156 634.179688 1428.308594 645.835938 C 1429.457031 657.496094 1430.316406 669.175781 1430.890625 680.875 C 1431.464844 692.574219 1431.753906 704.28125 1431.753906 715.996094 Z M 1431.753906 715.996094 " fill-opacity="1" fill-rule="nonzero"/></g><g clip-path="url(#85b2a1d99b)"><path fill="#0d1122" d="M 1314.339844 715.992188 C 1314.339844 725.785156 1314.097656 735.570312 1313.617188 745.351562 C 1313.136719 755.132812 1312.417969 764.894531 1311.457031 774.640625 C 1310.496094 784.382812 1309.300781 794.101562 1307.863281 803.785156 C 1306.425781 813.472656 1304.753906 823.117188 1302.839844 832.722656 C 1300.929688 842.328125 1298.785156 851.878906 1296.40625 861.378906 C 1294.027344 870.875 1291.417969 880.3125 1288.574219 889.683594 C 1285.730469 899.054688 1282.660156 908.347656 1279.363281 917.566406 C 1276.0625 926.789062 1272.539062 935.921875 1268.792969 944.96875 C 1265.042969 954.015625 1261.078125 962.964844 1256.890625 971.816406 C 1252.703125 980.667969 1248.300781 989.414062 1243.6875 998.050781 C 1239.070312 1006.6875 1234.246094 1015.203125 1229.210938 1023.601562 C 1224.175781 1032.003906 1218.9375 1040.273438 1213.5 1048.414062 C 1208.058594 1056.558594 1202.421875 1064.5625 1196.589844 1072.425781 C 1190.753906 1080.292969 1184.734375 1088.007812 1178.519531 1095.578125 C 1172.308594 1103.148438 1165.914062 1110.5625 1159.335938 1117.816406 C 1152.761719 1125.074219 1146.011719 1132.164062 1139.085938 1139.085938 C 1132.164062 1146.011719 1125.074219 1152.761719 1117.816406 1159.335938 C 1110.5625 1165.914062 1103.148438 1172.308594 1095.578125 1178.519531 C 1088.007812 1184.734375 1080.292969 1190.753906 1072.425781 1196.589844 C 1064.5625 1202.421875 1056.558594 1208.058594 1048.414062 1213.5 C 1040.273438 1218.9375 1032.003906 1224.175781 1023.601562 1229.210938 C 1015.203125 1234.246094 1006.6875 1239.070312 998.050781 1243.6875 C 989.414062 1248.304688 980.671875 1252.703125 971.816406 1256.890625 C 962.964844 1261.078125 954.015625 1265.042969 944.96875 1268.792969 C 935.921875 1272.539062 926.789062 1276.0625 917.566406 1279.363281 C 908.347656 1282.660156 899.054688 1285.730469 889.683594 1288.574219 C 880.3125 1291.417969 870.875 1294.027344 861.378906 1296.40625 C 851.878906 1298.785156 842.328125 1300.929688 832.722656 1302.839844 C 823.117188 1304.753906 813.472656 1306.425781 803.785156 1307.863281 C 794.101562 1309.300781 784.386719 1310.496094 774.640625 1311.457031 C 764.894531 1312.417969 755.132812 1313.136719 745.351562 1313.617188 C 735.570312 1314.097656 725.785156 1314.339844 715.992188 1314.339844 C 706.199219 1314.339844 696.414062 1314.097656 686.632812 1313.617188 C 676.851562 1313.136719 667.089844 1312.417969 657.34375 1311.457031 C 647.597656 1310.496094 637.882812 1309.300781 628.195312 1307.863281 C 618.507812 1306.425781 608.863281 1304.753906 599.257812 1302.839844 C 589.65625 1300.929688 580.101562 1298.785156 570.605469 1296.40625 C 561.105469 1294.027344 551.671875 1291.417969 542.300781 1288.574219 C 532.929688 1285.730469 523.632812 1282.660156 514.414062 1279.363281 C 505.195312 1276.0625 496.058594 1272.539062 487.011719 1268.792969 C 477.964844 1265.042969 469.015625 1261.078125 460.164062 1256.890625 C 451.3125 1252.703125 442.566406 1248.300781 433.933594 1243.6875 C 425.296875 1239.070312 416.777344 1234.246094 408.378906 1229.210938 C 399.980469 1224.175781 391.710938 1218.9375 383.566406 1213.5 C 375.425781 1208.058594 367.421875 1202.421875 359.554688 1196.589844 C 351.691406 1190.753906 343.972656 1184.730469 336.402344 1178.519531 C 328.832031 1172.308594 321.421875 1165.914062 314.164062 1159.335938 C 306.910156 1152.761719 299.820312 1146.011719 292.894531 1139.085938 C 285.972656 1132.164062 279.222656 1125.074219 272.644531 1117.816406 C 266.070312 1110.5625 259.675781 1103.148438 253.460938 1095.578125 C 247.25 1088.007812 241.226562 1080.292969 235.394531 1072.425781 C 229.558594 1064.5625 223.921875 1056.558594 218.484375 1048.414062 C 213.042969 1040.273438 207.804688 1032.003906 202.769531 1023.601562 C 197.738281 1015.203125 192.910156 1006.6875 188.296875 998.050781 C 183.679688 989.414062 179.277344 980.667969 175.089844 971.816406 C 170.90625 962.964844 166.9375 954.015625 163.191406 944.96875 C 159.441406 935.921875 155.917969 926.789062 152.621094 917.566406 C 149.320312 908.347656 146.25 899.054688 143.410156 889.683594 C 140.566406 880.3125 137.953125 870.875 135.574219 861.378906 C 133.195312 851.878906 131.050781 842.328125 129.140625 832.722656 C 127.230469 823.117188 125.554688 813.472656 124.121094 803.785156 C 122.683594 794.101562 121.484375 784.382812 120.523438 774.640625 C 119.566406 764.894531 118.84375 755.132812 118.363281 745.351562 C 117.882812 735.570312 117.644531 725.785156 117.644531 715.992188 C 117.644531 706.199219 117.882812 696.414062 118.363281 686.632812 C 118.84375 676.851562 119.566406 667.089844 120.523438 657.34375 C 121.484375 647.597656 122.683594 637.882812 124.121094 628.195312 C 125.554688 618.507812 127.230469 608.863281 129.140625 599.257812 C 131.050781 589.65625 133.195312 580.101562 135.574219 570.605469 C 137.953125 561.105469 140.566406 551.671875 143.410156 542.300781 C 146.25 532.929688 149.320312 523.632812 152.621094 514.414062 C 155.917969 505.195312 159.441406 496.058594 163.191406 487.011719 C 166.9375 477.964844 170.90625 469.015625 175.089844 460.164062 C 179.277344 451.3125 183.679688 442.566406 188.296875 433.933594 C 192.910156 425.296875 197.738281 416.777344 202.769531 408.378906 C 207.804688 399.980469 213.042969 391.710938 218.484375 383.566406 C 223.921875 375.425781 229.558594 367.421875 235.394531 359.554688 C 241.226562 351.691406 247.25 343.972656 253.460938 336.402344 C 259.675781 328.832031 266.070312 321.421875 272.644531 314.164062 C 279.222656 306.910156 285.972656 299.820312 292.894531 292.894531 C 299.820312 285.972656 306.910156 279.222656 314.164062 272.644531 C 321.421875 266.070312 328.832031 259.675781 336.402344 253.460938 C 343.972656 247.25 351.691406 241.226562 359.554688 235.394531 C 367.421875 229.558594 375.425781 223.921875 383.566406 218.484375 C 391.710938 213.042969 399.980469 207.804688 408.378906 202.769531 C 416.777344 197.738281 425.296875 192.910156 433.933594 188.296875 C 442.566406 183.679688 451.3125 179.277344 460.164062 175.089844 C 469.015625 170.90625 477.964844 166.9375 487.011719 163.191406 C 496.058594 159.441406 505.195312 155.917969 514.414062 152.621094 C 523.632812 149.320312 532.929688 146.25 542.300781 143.40625 C 551.671875 140.566406 561.105469 137.953125 570.605469 135.574219 C 580.101562 133.195312 589.65625 131.050781 599.257812 129.140625 C 608.863281 127.230469 618.507812 125.554688 628.195312 124.121094 C 637.882812 122.683594 647.597656 121.484375 657.34375 120.523438 C 667.089844 119.566406 676.851562 118.84375 686.632812 118.363281 C 696.414062 117.882812 706.199219 117.644531 715.992188 117.644531 C 725.785156 117.644531 735.570312 117.882812 745.351562 118.363281 C 755.132812 118.84375 764.894531 119.566406 774.640625 120.523438 C 784.386719 121.484375 794.101562 122.683594 803.785156 124.121094 C 813.472656 125.554688 823.117188 127.230469 832.722656 129.140625 C 842.328125 131.050781 851.878906 133.195312 861.378906 135.574219 C 870.875 137.953125 880.3125 140.566406 889.683594 143.40625 C 899.054688 146.25 908.347656 149.320312 917.570312 152.621094 C 926.789062 155.917969 935.921875 159.441406 944.96875 163.191406 C 954.015625 166.9375 962.964844 170.90625 971.816406 175.089844 C 980.671875 179.277344 989.414062 183.679688 998.050781 188.296875 C 1006.6875 192.910156 1015.203125 197.738281 1023.601562 202.769531 C 1032.003906 207.804688 1040.273438 213.042969 1048.414062 218.484375 C 1056.558594 223.921875 1064.5625 229.558594 1072.425781 235.394531 C 1080.292969 241.226562 1088.007812 247.25 1095.578125 253.460938 C 1103.148438 259.675781 1110.5625 266.070312 1117.816406 272.644531 C 1125.074219 279.222656 1132.164062 285.972656 1139.085938 292.894531 C 1146.011719 299.820312 1152.761719 306.910156 1159.335938 314.164062 C 1165.914062 321.421875 1172.308594 328.832031 1178.519531 336.402344 C 1184.734375 343.972656 1190.753906 351.691406 1196.589844 359.554688 C 1202.421875 367.421875 1208.058594 375.425781 1213.5 383.566406 C 1218.9375 391.710938 1224.175781 399.980469 1229.210938 408.378906 C 1234.246094 416.777344 1239.070312 425.296875 1243.6875 433.933594 C 1248.304688 442.566406 1252.703125 451.3125 1256.890625 460.164062 C 1261.078125 469.015625 1265.046875 477.964844 1268.792969 487.011719 C 1272.539062 496.058594 1276.0625 505.195312 1279.363281 514.414062 C 1282.660156 523.632812 1285.730469 532.929688 1288.574219 542.300781 C 1291.417969 551.671875 1294.027344 561.105469 1296.40625 570.605469 C 1298.785156 580.101562 1300.929688 589.65625 1302.839844 599.257812 C 1304.753906 608.863281 1306.425781 618.507812 1307.863281 628.195312 C 1309.300781 637.882812 1310.496094 647.597656 1311.457031 657.34375 C 1312.417969 667.089844 1313.136719 676.851562 1313.617188 686.632812 C 1314.097656 696.414062 1314.339844 706.199219 1314.339844 715.992188 Z M 1314.339844 715.992188 " fill-opacity="1" fill-rule="nonzero"/></g><g clip-path="url(#0ad44a4966)"><path fill="#ebebe7" d="M 716.460938 1174.253906 L 716.460938 249.960938 C 881.300781 253.984375 1013.355469 317.515625 1103.472656 453.253906 C 1209.03125 612.269531 1214.5625 780.535156 1118.929688 945.433594 C 1031.582031 1096.015625 893.945312 1167.757812 716.476562 1174.273438 Z M 716.460938 1174.253906 " fill-opacity="1" fill-rule="nonzero"/></g></g></g></svg>
